<?xml version="1.0" encoding="utf-8"?>
<svg version="1.1" id="Layer_1" x="0px" y="0px" width="100%" viewBox="0 0 400 200" enable-background="new 0 0 400 200" xmlns="http://www.w3.org/2000/svg">
  <defs/>
  <path opacity="1.000000" stroke="none" d="&#10;M297.000000,201.000000 &#10;&#9;C198.041046,201.000000 99.582077,201.000000 1.061558,201.000000 &#10;&#9;C1.061558,134.402191 1.061558,67.804321 1.061558,1.103222 &#10;&#9;C134.333298,1.103222 267.666626,1.103222 400.978333,1.103222 &#10;&#9;C400.978333,67.751129 400.978333,134.375565 400.978333,201.000000 &#10;&#9;C366.471100,201.000000 331.985535,201.000000 297.000000,201.000000 &#10;M122.955872,151.062546 &#10;&#9;C122.900139,145.390686 122.844398,139.718811 122.963203,133.139984 &#10;&#9;C122.963203,130.543915 122.963203,127.947853 122.963203,124.869652 &#10;&#9;C129.665924,124.869652 135.734192,124.869652 142.288010,125.455421 &#10;&#9;C144.914536,128.432480 148.128464,129.238342 151.441208,127.056030 &#10;&#9;C155.146027,124.615433 154.538437,120.967430 153.792816,116.751839 &#10;&#9;C156.867279,112.115143 159.941742,107.478439 163.944427,102.961899 &#10;&#9;C173.625153,102.916809 183.305862,102.871719 193.851456,102.965485 &#10;&#9;C195.887833,102.951866 197.924194,102.938248 200.370636,103.509094 &#10;&#9;C203.948334,107.512474 208.029068,108.125420 211.033432,105.110718 &#10;&#9;C213.615540,102.519714 213.527878,98.239288 210.840256,95.678642 &#10;&#9;C207.278885,92.285530 202.584732,93.720329 198.923981,99.037514 &#10;&#9;C196.945801,99.075378 194.967606,99.113251 192.060181,99.033638 &#10;&#9;C182.701569,99.044289 173.342941,99.054939 163.578568,98.506760 &#10;&#9;C161.767990,95.572617 159.957413,92.638466 157.970352,89.047806 &#10;&#9;C156.608505,86.000381 155.246658,82.952957 154.312790,79.377266 &#10;&#9;C156.493896,75.248146 155.537872,71.906883 151.400635,69.898460 &#10;&#9;C147.233780,67.875656 144.563126,70.521561 141.273132,73.349541 &#10;&#9;C135.454529,73.308914 129.629684,73.415298 123.819824,73.168510 &#10;&#9;C120.697922,73.035904 119.008278,74.274040 117.592941,76.965569 &#10;&#9;C114.734222,82.401993 111.878105,87.902283 108.355751,92.908195 &#10;&#9;C105.338722,97.195953 105.471733,100.482513 108.229614,104.927177 &#10;&#9;C113.928612,114.111778 121.049171,122.980049 118.999825,135.932495 &#10;&#9;C119.042091,141.285446 119.084358,146.638412 118.992088,152.912582 &#10;&#9;C118.954773,157.237762 118.917458,161.562943 118.245590,166.218826 &#10;&#9;C113.882431,170.209122 113.620903,172.448959 117.435699,177.551437 &#10;&#9;C123.741646,179.900589 127.783600,177.297440 127.446861,170.295135 &#10;&#9;C125.864616,168.597336 124.282372,166.899536 122.885017,164.256470 &#10;&#9;C122.858086,160.166046 122.831154,156.075638 122.955872,151.062546 &#10;M62.959793,24.248302 &#10;&#9;C61.270969,20.142614 58.185139,18.925318 54.230099,20.526567 &#10;&#9;C50.506870,22.033968 49.839764,25.332550 51.983315,30.590355 &#10;&#9;C52.086777,30.733904 52.190235,30.877455 52.199757,31.754765 &#10;&#9;C47.472450,40.121460 42.841824,48.545975 37.911259,56.791119 &#10;&#9;C37.190331,57.996696 35.066753,58.921833 33.546959,58.991627 &#10;&#9;C27.916584,59.250179 22.262285,58.971634 16.629045,59.196815 &#10;&#9;C15.424276,59.244976 14.270078,60.558197 13.092582,61.288628 &#10;&#9;C14.215217,61.903717 15.320955,63.011002 16.463360,63.050217 &#10;&#9;C21.933208,63.237995 27.432564,62.874653 32.878471,63.281807 &#10;&#9;C34.749321,63.421680 37.212784,64.786911 38.178368,66.350273 &#10;&#9;C43.227970,74.526001 47.883072,82.945389 52.345673,92.051987 &#10;&#9;C51.457836,95.776993 51.815582,99.100571 55.731209,100.908867 &#10;&#9;C59.942005,102.853462 62.647671,100.506111 65.915039,97.267311 &#10;&#9;C73.265900,97.250710 80.616753,97.234100 88.387459,97.762680 &#10;&#9;C90.606125,100.809891 93.494293,102.078697 97.054359,100.483871 &#10;&#9;C100.673714,98.862480 101.337364,95.704857 101.055931,91.439964 &#10;&#9;C105.697060,83.422760 110.338181,75.405556 115.737625,67.206161 &#10;&#9;C119.906967,66.788147 122.165512,64.306885 121.835747,60.302036 &#10;&#9;C121.478317,55.961182 118.216782,54.356995 113.953033,53.398540 &#10;&#9;C110.411201,47.533428 106.869370,41.668312 103.182159,35.096714 &#10;&#9;C102.479980,33.790241 101.606834,32.545784 101.106369,31.166140 &#10;&#9;C99.314880,26.227430 95.949142,24.770552 90.751122,25.043552 &#10;&#9;C81.819588,25.512636 72.847458,25.208473 63.604515,24.970394 &#10;&#9;C63.604515,24.970394 63.220097,24.929390 62.959793,24.248302 &#10;M70.905579,156.547562 &#10;&#9;C76.848427,156.437576 82.808723,156.548904 88.723503,156.082764 &#10;&#9;C90.498489,155.942886 92.789322,154.602692 93.740471,153.109543 &#10;&#9;C97.648750,146.974182 101.314636,140.662231 104.648705,134.198120 &#10;&#9;C105.533546,132.482559 105.688110,129.608719 104.849876,127.929771 &#10;&#9;C102.122581,122.467110 98.780357,117.311455 95.484940,111.393196 &#10;&#9;C93.713669,105.882248 89.847755,104.523163 84.361656,104.984650 &#10;&#9;C78.581718,105.470856 72.723625,105.244644 66.910606,105.031509 &#10;&#9;C63.908199,104.921425 62.058945,105.738586 60.600090,108.545425 &#10;&#9;C57.691151,114.142288 54.552723,119.647522 51.077595,124.905411 &#10;&#9;C50.050583,126.459274 47.642490,127.782249 45.754452,127.951385 &#10;&#9;C40.969830,128.379974 36.114273,127.952393 31.302841,128.188248 &#10;&#9;C29.994871,128.252365 28.742695,129.454666 27.464916,130.134598 &#10;&#9;C28.698431,130.802505 29.894497,131.956772 31.171864,132.055115 &#10;&#9;C37.061459,132.508591 44.229603,130.707550 48.535847,133.466400 &#10;&#9;C53.134739,136.412750 55.039978,143.563858 58.118999,148.880676 &#10;&#9;C58.202019,149.024033 58.261200,149.181183 58.057255,150.031143 &#10;&#9;C56.119068,153.833160 56.551144,157.213806 60.280647,159.555878 &#10;&#9;C64.571175,162.250290 67.407967,159.523392 70.905579,156.547562 &#10;M215.813248,61.384338 &#10;&#9;C215.414017,48.571541 210.453140,40.028988 200.849335,38.337658 &#10;&#9;C192.981842,36.952106 184.803253,37.333019 176.601715,36.922817 &#10;&#9;C176.601715,53.169785 176.601715,68.397469 176.601715,84.015335 &#10;&#9;C181.625671,84.015335 186.415405,84.017296 191.205139,84.014984 &#10;&#9;C207.273788,84.007248 213.826431,78.208260 215.813248,61.384338 &#10;M238.307846,47.738823 &#10;&#9;C234.085495,59.687344 229.863159,71.635864 225.544495,83.856934 &#10;&#9;C229.438538,83.856934 232.580521,83.856934 235.660614,83.856934 &#10;&#9;C238.987381,75.428268 239.067108,74.935333 241.663193,75.355209 &#10;&#9;C248.822647,76.513145 259.468628,70.024307 260.600983,83.884094 &#10;&#9;C264.297913,83.884094 267.445557,83.884094 271.022827,83.884094 &#10;&#9;C266.643738,71.627213 262.348419,59.618259 258.062866,47.605804 &#10;&#9;C254.278580,36.998310 254.283325,36.993835 243.031616,37.336464 &#10;&#9;C242.749420,37.345055 242.474396,37.588715 241.922440,37.854465 &#10;&#9;C240.880661,40.788876 239.770966,43.914524 238.307846,47.738823 &#10;M383.188660,51.783867 &#10;&#9;C385.668396,47.144249 388.148102,42.504631 390.743317,37.648968 &#10;&#9;C380.581604,36.643879 380.584564,36.645409 376.444061,44.623592 &#10;&#9;C374.245636,48.859695 372.034851,53.089382 369.550049,57.858566 &#10;&#9;C366.931030,52.841389 364.613831,48.441628 362.332397,44.023396 &#10;&#9;C358.275452,36.166645 358.089417,36.071789 348.885834,37.949024 &#10;&#9;C354.663666,53.123768 368.592316,65.412582 364.287628,83.676331 &#10;&#9;C368.243744,83.676331 371.316833,83.676331 375.374237,83.676331 &#10;&#9;C372.186981,72.221878 376.511444,62.818733 382.141357,53.757965 &#10;&#9;C382.405029,53.333607 382.648315,52.896561 383.188660,51.783867 &#10;M309.362061,82.093781 &#10;&#9;C309.765320,82.706459 310.163330,83.850082 310.572571,83.854111 &#10;&#9;C320.634186,83.953415 330.696991,83.931816 340.612854,83.931816 &#10;&#9;C340.612854,80.618362 340.612854,78.007759 340.612854,74.984116 &#10;&#9;C333.471313,74.984116 326.544006,74.984116 319.104980,74.984116 &#10;&#9;C319.104980,62.186096 319.104980,49.811928 319.104980,37.548462 &#10;&#9;C315.648834,37.548462 312.722565,37.548462 309.354980,37.548462 &#10;&#9;C309.354980,52.276981 309.354980,66.717010 309.362061,82.093781 &#10;M289.384735,84.018127 &#10;&#9;C291.881104,84.376930 292.880981,83.524376 292.826233,80.789703 &#10;&#9;C292.656677,72.321053 292.764496,63.846855 292.764587,55.374809 &#10;&#9;C292.764648,49.452858 292.764587,43.530903 292.764587,37.597725 &#10;&#9;C289.080811,37.597725 286.045105,37.597725 282.895172,37.597725 &#10;&#9;C282.895172,53.189941 282.895172,68.437386 282.895172,84.018204 &#10;&#9;C284.859161,84.018204 286.665161,84.018204 289.384735,84.018127 &#10;M239.199188,127.528755 &#10;&#9;C241.329895,128.724030 243.216827,130.829086 240.481064,132.269440 &#10;&#9;C238.640457,133.238510 235.403702,132.116577 233.010483,131.293533 &#10;&#9;C231.175797,130.662582 229.683273,129.036743 227.303345,127.324364 &#10;&#9;C226.876694,136.072006 233.201050,140.348511 241.024887,137.634293 &#10;&#9;C243.510468,136.772003 246.019760,133.878937 247.015533,131.328491 &#10;&#9;C248.402039,127.777321 245.989197,125.005592 242.618805,123.482353 &#10;&#9;C240.208893,122.393204 237.563431,121.750122 235.309753,120.421692 &#10;&#9;C234.155304,119.741203 233.629761,117.993828 232.819977,116.728630 &#10;&#9;C234.178986,116.034523 235.549759,114.773743 236.893753,114.801682 &#10;&#9;C238.308380,114.831078 239.725922,116.043076 241.090454,116.828239 &#10;&#9;C242.827560,117.827782 244.512741,118.917587 246.992722,120.443863 &#10;&#9;C246.598022,111.528618 239.252670,107.304619 232.129532,110.716431 &#10;&#9;C229.952942,111.758965 227.559845,114.593193 227.328491,116.821075 &#10;&#9;C227.097900,119.041718 228.953186,122.096741 230.814499,123.748711 &#10;&#9;C232.804214,125.514618 235.869812,126.068306 239.199188,127.528755 &#10;M319.157990,170.644577 &#10;&#9;C317.817169,170.803696 316.476349,170.962814 315.085663,171.127838 &#10;&#9;C316.583191,178.485641 320.547821,181.063309 327.983704,180.077133 &#10;&#9;C332.173187,179.521500 335.247711,177.525940 335.854309,173.076233 &#10;&#9;C336.419037,168.933548 333.855591,166.625763 330.416168,165.114746 &#10;&#9;C327.992798,164.050110 325.406464,163.312500 323.096802,162.054489 &#10;&#9;C322.166138,161.547577 321.149353,159.919769 321.322174,159.024048 &#10;&#9;C321.496460,158.120834 323.198120,156.771301 324.053192,156.890427 &#10;&#9;C326.001984,157.161926 327.895782,158.101715 329.711334,158.978302 &#10;&#9;C331.499298,159.841553 333.163269,160.961624 335.718964,162.459885 &#10;&#9;C334.912018,154.190125 331.115234,151.284042 323.947144,151.858459 &#10;&#9;C319.784790,152.192001 316.508789,153.809494 315.666473,158.319580 &#10;&#9;C314.850616,162.687943 317.398651,165.178177 320.963562,166.854477 &#10;&#9;C323.206329,167.909058 325.692047,168.501175 327.811371,169.740845 &#10;&#9;C328.849915,170.348312 330.063751,172.170258 329.816803,173.058441 &#10;&#9;C329.539673,174.055038 327.784149,175.047333 326.527832,175.287354 &#10;&#9;C322.990356,175.963181 321.336517,173.428131 319.157990,170.644577 &#10;M247.008102,176.399445 &#10;&#9;C244.683716,169.127945 242.461349,161.820541 239.929504,154.622009 &#10;&#9;C239.530655,153.488007 237.795914,152.263046 236.562469,152.125748 &#10;&#9;C235.030502,151.955215 232.272247,152.477005 231.948349,153.381699 &#10;&#9;C228.855164,162.021408 226.165100,170.805466 223.359329,179.548080 &#10;&#9;C223.861649,180.008469 224.363983,180.468857 224.866302,180.929245 &#10;&#9;C226.621735,179.640305 228.645493,178.590866 230.064163,177.001358 &#10;&#9;C231.809250,175.046143 240.221283,174.693924 241.014816,177.126083 &#10;&#9;C242.363815,181.260727 245.110794,179.895737 247.978394,179.763626 &#10;&#9;C247.668076,178.739273 247.432816,177.962692 247.008102,176.399445 &#10;M273.876526,114.914551 &#10;&#9;C274.894592,113.642738 275.912659,112.370926 277.577789,110.290787 &#10;&#9;C269.633667,110.290787 263.422974,110.290787 257.269592,110.290787 &#10;&#9;C257.269592,119.661659 257.269592,128.718536 257.269592,137.823914 &#10;&#9;C263.685242,137.823914 269.775696,137.823914 276.035400,137.823914 &#10;&#9;C276.035400,136.213242 276.035400,134.806290 276.035400,133.000366 &#10;&#9;C271.504059,133.000366 267.247498,133.000366 263.007996,133.000366 &#10;&#9;C263.007996,130.551865 263.007996,128.509949 263.007996,126.060608 &#10;&#9;C266.119354,126.060608 268.875397,126.060608 272.029755,126.060608 &#10;&#9;C271.817322,124.250511 271.659698,122.907440 271.448517,121.107811 &#10;&#9;C268.277832,121.107811 265.547729,121.107811 262.882996,121.107811 &#10;&#9;C262.882996,118.820786 262.882996,117.060631 262.882996,114.915970 &#10;&#9;C266.397858,114.915970 269.694183,114.915970 273.876526,114.914551 &#10;M313.811707,118.537750 &#10;&#9;C313.828857,122.196007 313.688080,125.863457 313.900604,129.510330 &#10;&#9;C314.209778,134.816238 317.878601,138.014282 323.515472,138.199890 &#10;&#9;C329.582428,138.399673 333.846893,135.499573 334.160126,130.154327 &#10;&#9;C334.546753,123.556831 334.252563,116.919426 334.252563,110.242867 &#10;&#9;C332.368805,110.242867 330.791046,110.242867 328.874725,110.242867 &#10;&#9;C328.874725,115.947968 328.832306,121.411713 328.889984,126.874397 &#10;&#9;C328.927094,130.389740 328.255859,133.408951 323.924377,133.334381 &#10;&#9;C319.854034,133.264313 319.305603,130.272873 319.309418,127.029350 &#10;&#9;C319.316040,121.435181 319.311249,115.841003 319.311249,109.937653 &#10;&#9;C317.167969,110.057610 315.611511,110.144722 313.811707,110.245453 &#10;&#9;C313.811707,112.939194 313.811707,115.249458 313.811707,118.537750 &#10;M198.174469,133.950470 &#10;&#9;C201.357834,138.439926 206.075531,139.229279 210.625137,137.628830 &#10;&#9;C213.181931,136.729431 216.488022,133.738693 216.765015,131.374756 &#10;&#9;C217.581879,124.403587 217.056671,117.275146 217.056671,110.144936 &#10;&#9;C215.257538,110.144936 213.806854,110.144936 211.874496,110.144936 &#10;&#9;C211.874496,115.911774 211.841125,121.534927 211.887070,127.157425 &#10;&#9;C211.914490,130.511993 211.134735,133.299301 207.128448,133.341553 &#10;&#9;C203.081650,133.384201 202.307022,130.541275 202.310013,127.223969 &#10;&#9;C202.315109,121.586349 202.311401,115.948723 202.311401,110.243774 &#10;&#9;C200.326141,110.243774 198.749725,110.243774 196.352112,110.243774 &#10;&#9;C196.856049,118.088661 197.341476,125.645386 198.174469,133.950470 &#10;M304.918732,166.403214 &#10;&#9;C308.934021,159.894424 306.696716,152.962570 300.013062,152.158295 &#10;&#9;C295.660553,151.634552 291.193848,152.059601 286.790833,152.059601 &#10;&#9;C286.790833,161.670715 286.790833,170.726807 286.790833,180.078491 &#10;&#9;C288.740784,179.968124 290.308380,179.879410 292.367004,179.762894 &#10;&#9;C292.367004,176.006958 292.367004,172.612946 292.367004,170.189148 &#10;&#9;C296.839905,168.979172 300.591003,167.964447 304.918732,166.403214 &#10;M273.825104,153.329559 &#10;&#9;C268.351349,152.690079 262.877594,152.050598 257.230743,151.390900 &#10;&#9;C257.230743,161.590775 257.230743,170.661301 257.230743,179.768616 &#10;&#9;C259.074036,179.768616 260.655701,179.768616 262.798950,179.768616 &#10;&#9;C262.798950,176.142715 262.798950,172.747375 262.798950,169.141968 &#10;&#9;C268.519226,168.977188 274.455719,170.162079 276.967621,163.748001 &#10;&#9;C278.418518,160.043060 277.625702,156.544189 273.825104,153.329559 &#10;M286.064972,110.745003 &#10;&#9;C286.064972,119.707893 286.064972,128.670792 286.064972,137.824402 &#10;&#9;C287.958710,137.824402 289.544952,137.824402 291.745392,137.824402 &#10;&#9;C291.745392,133.914536 291.745392,130.182816 291.745392,126.059799 &#10;&#9;C295.118896,126.059799 297.878143,126.059799 301.036102,126.059799 &#10;&#9;C300.822571,124.253136 300.663269,122.905342 300.449493,121.096718 &#10;&#9;C297.275604,121.096718 294.543427,121.096718 291.901855,121.096718 &#10;&#9;C291.901855,118.809807 291.901855,117.048355 291.901855,114.864159 &#10;&#9;C296.376587,114.864159 300.627899,114.864159 304.995972,114.864159 &#10;&#9;C304.995972,113.019913 304.995972,111.607048 304.995972,110.074615 &#10;&#9;C298.721100,110.074615 292.739777,110.074615 286.064972,110.745003 &#10;M344.769867,134.388458 &#10;&#9;C344.849945,136.110764 344.170471,138.142303 347.263519,138.048538 &#10;&#9;C352.720703,137.883102 358.186493,138.002213 363.759064,138.002213 &#10;&#9;C363.759064,136.213013 363.759064,134.835510 363.759064,133.048126 &#10;&#9;C359.217163,133.048126 354.954102,133.048126 350.245789,133.048126 &#10;&#9;C350.245789,125.239944 350.245789,117.828369 350.245789,110.264908 &#10;&#9;C348.226257,110.264908 346.679260,110.264908 344.769714,110.264908 &#10;&#9;C344.769714,118.156296 344.769714,125.783409 344.769867,134.388458 &#10;z" style="fill-opacity: 0; fill: rgba(255, 255, 255, 0);"/>
  <path fill="#090909" opacity="1.000000" stroke="none" d="&#10;M215.797379,61.826077 &#10;&#9;C213.826431,78.208260 207.273788,84.007248 191.205139,84.014984 &#10;&#9;C186.415405,84.017296 181.625671,84.015335 176.601715,84.015335 &#10;&#9;C176.601715,68.397469 176.601715,53.169785 176.601715,36.922817 &#10;&#9;C184.803253,37.333019 192.981842,36.952106 200.849335,38.337658 &#10;&#9;C210.453140,40.028988 215.414017,48.571541 215.797379,61.826077 &#10;M186.349731,70.269455 &#10;&#9;C186.417084,71.730034 186.484451,73.190613 186.559601,74.820023 &#10;&#9;C193.120575,75.073647 199.865753,76.383408 203.605789,69.405426 &#10;&#9;C206.888489,63.280743 206.898560,56.774536 202.927734,50.922543 &#10;&#9;C198.893372,44.976864 192.654114,46.220436 186.349747,46.497898 &#10;&#9;C186.349747,54.384281 186.349747,61.848663 186.349731,70.269455 &#10;z"/>
  <path fill="#070707" opacity="1.000000" stroke="none" d="&#10;M238.484558,47.389500 &#10;&#9;C239.770966,43.914524 240.880661,40.788876 241.922440,37.854465 &#10;&#9;C242.474396,37.588715 242.749420,37.345055 243.031616,37.336464 &#10;&#9;C254.283325,36.993835 254.278580,36.998310 258.062866,47.605804 &#10;&#9;C262.348419,59.618259 266.643738,71.627213 271.022827,83.884094 &#10;&#9;C267.445557,83.884094 264.297913,83.884094 260.600983,83.884094 &#10;&#9;C259.468628,70.024307 248.822647,76.513145 241.663193,75.355209 &#10;&#9;C239.067108,74.935333 238.987381,75.428268 235.660614,83.856934 &#10;&#9;C232.580521,83.856934 229.438538,83.856934 225.544495,83.856934 &#10;&#9;C229.863159,71.635864 234.085495,59.687344 238.484558,47.389500 &#10;M253.056580,66.248642 &#10;&#9;C253.190582,65.288467 253.665619,64.220642 253.402161,63.385921 &#10;&#9;C251.918732,58.686268 250.257706,54.042679 248.244308,48.176922 &#10;&#9;C246.010544,54.736290 244.129959,60.258541 242.076462,66.288574 &#10;&#9;C245.877945,66.288574 249.011765,66.288574 253.056580,66.248642 &#10;z"/>
  <path fill="#0A0A0A" opacity="1.000000" stroke="none" d="&#10;M383.044891,52.124641 &#10;&#9;C382.648315,52.896561 382.405029,53.333607 382.141357,53.757965 &#10;&#9;C376.511444,62.818733 372.186981,72.221878 375.374237,83.676331 &#10;&#9;C371.316833,83.676331 368.243744,83.676331 364.287628,83.676331 &#10;&#9;C368.592316,65.412582 354.663666,53.123768 348.885834,37.949024 &#10;&#9;C358.089417,36.071789 358.275452,36.166645 362.332397,44.023396 &#10;&#9;C364.613831,48.441628 366.931030,52.841389 369.550049,57.858566 &#10;&#9;C372.034851,53.089382 374.245636,48.859695 376.444061,44.623592 &#10;&#9;C380.584564,36.645409 380.581604,36.643879 390.743317,37.648968 &#10;&#9;C388.148102,42.504631 385.668396,47.144249 383.044891,52.124641 &#10;z"/>
  <path fill="#0A0A0A" opacity="1.000000" stroke="none" d="&#10;M309.358521,81.625412 &#10;&#9;C309.354980,66.717010 309.354980,52.276981 309.354980,37.548462 &#10;&#9;C312.722565,37.548462 315.648834,37.548462 319.104980,37.548462 &#10;&#9;C319.104980,49.811928 319.104980,62.186096 319.104980,74.984116 &#10;&#9;C326.544006,74.984116 333.471313,74.984116 340.612854,74.984116 &#10;&#9;C340.612854,78.007759 340.612854,80.618362 340.612854,83.931816 &#10;&#9;C330.696991,83.931816 320.634186,83.953415 310.572571,83.854111 &#10;&#9;C310.163330,83.850082 309.765320,82.706459 309.358521,81.625412 &#10;z"/>
  <path fill="#0A0A0A" opacity="1.000000" stroke="none" d="&#10;M288.927917,84.018166 &#10;&#9;C286.665161,84.018204 284.859161,84.018204 282.895172,84.018204 &#10;&#9;C282.895172,68.437386 282.895172,53.189941 282.895172,37.597725 &#10;&#9;C286.045105,37.597725 289.080811,37.597725 292.764587,37.597725 &#10;&#9;C292.764587,43.530903 292.764648,49.452858 292.764587,55.374809 &#10;&#9;C292.764496,63.846855 292.656677,72.321053 292.826233,80.789703 &#10;&#9;C292.880981,83.524376 291.881104,84.376930 288.927917,84.018166 &#10;z"/>
  <path fill="#67C4E4" opacity="1.000000" stroke="none" d="&#10;M119.098022,135.001556 &#10;&#9;C121.049171,122.980049 113.928612,114.111778 108.229614,104.927177 &#10;&#9;C105.471733,100.482513 105.338722,97.195953 108.355751,92.908195 &#10;&#9;C111.878105,87.902283 114.734222,82.401993 117.592941,76.965569 &#10;&#9;C119.008278,74.274040 120.697922,73.035904 123.819824,73.168510 &#10;&#9;C129.629684,73.415298 135.454529,73.308914 141.701202,73.795151 &#10;&#9;C142.127792,75.405190 142.126328,76.569611 141.651123,77.800476 &#10;&#9;C136.366196,77.885025 131.543198,78.115791 126.747818,77.849396 &#10;&#9;C123.328857,77.659447 121.232475,78.737961 119.658501,81.844086 &#10;&#9;C116.675934,87.729927 110.920753,93.411896 110.854721,99.230057 &#10;&#9;C110.791214,104.826195 116.572159,110.430954 119.573082,116.143311 &#10;&#9;C121.130203,119.107353 123.017830,120.550117 126.589485,120.272552 &#10;&#9;C131.371490,119.900925 136.202362,120.158012 141.046005,120.491898 &#10;&#9;C141.320663,122.182327 141.561569,123.525986 141.802475,124.869652 &#10;&#9;C135.734192,124.869652 129.665924,124.869652 122.963203,124.869652 &#10;&#9;C122.963203,127.947853 122.963203,130.543915 122.550690,133.582306 &#10;&#9;C121.124786,134.350281 120.111404,134.675919 119.098022,135.001556 &#10;z"/>
  <path fill="#62C3E4" opacity="1.000000" stroke="none" d="&#10;M58.331501,149.331909 &#10;&#9;C58.261200,149.181183 58.202019,149.024033 58.118999,148.880676 &#10;&#9;C55.039978,143.563858 53.134739,136.412750 48.535847,133.466400 &#10;&#9;C44.229603,130.707550 37.061459,132.508591 31.171864,132.055115 &#10;&#9;C29.894497,131.956772 28.698431,130.802505 27.464914,130.134598 &#10;&#9;C28.742695,129.454666 29.994871,128.252365 31.302841,128.188248 &#10;&#9;C36.114273,127.952393 40.969830,128.379974 45.754452,127.951385 &#10;&#9;C47.642490,127.782249 50.050583,126.459274 51.077595,124.905411 &#10;&#9;C54.552723,119.647522 57.691151,114.142288 60.600090,108.545425 &#10;&#9;C62.058945,105.738586 63.908199,104.921425 66.910606,105.031509 &#10;&#9;C72.723625,105.244644 78.581718,105.470856 84.361656,104.984650 &#10;&#9;C89.847755,104.523163 93.713669,105.882248 95.258759,111.710564 &#10;&#9;C94.021896,112.352486 93.011215,112.677048 91.720001,112.771912 &#10;&#9;C89.562569,107.410294 85.110939,109.761719 81.647789,109.109886 &#10;&#9;C69.394104,106.803520 61.693275,111.313965 56.626564,123.027893 &#10;&#9;C54.035267,129.018799 52.732590,133.336487 57.087311,138.610641 &#10;&#9;C59.174149,141.138062 60.440273,144.343109 61.847893,147.449066 &#10;&#9;C60.522293,148.215210 59.426895,148.773560 58.331501,149.331909 &#10;z"/>
  <path fill="#0B0B0B" opacity="1.000000" stroke="none" d="&#10;M238.832489,127.339951 &#10;&#9;C235.869812,126.068306 232.804214,125.514618 230.814499,123.748711 &#10;&#9;C228.953186,122.096741 227.097900,119.041718 227.328491,116.821075 &#10;&#9;C227.559845,114.593193 229.952942,111.758965 232.129532,110.716431 &#10;&#9;C239.252670,107.304619 246.598022,111.528618 246.992722,120.443863 &#10;&#9;C244.512741,118.917587 242.827560,117.827782 241.090454,116.828239 &#10;&#9;C239.725922,116.043076 238.308380,114.831078 236.893753,114.801682 &#10;&#9;C235.549759,114.773743 234.178986,116.034523 232.819977,116.728622 &#10;&#9;C233.629761,117.993828 234.155304,119.741203 235.309753,120.421692 &#10;&#9;C237.563431,121.750122 240.208893,122.393204 242.618805,123.482353 &#10;&#9;C245.989197,125.005592 248.402039,127.777321 247.015533,131.328491 &#10;&#9;C246.019760,133.878937 243.510468,136.772003 241.024887,137.634293 &#10;&#9;C233.201050,140.348511 226.876694,136.072006 227.303345,127.324364 &#10;&#9;C229.683273,129.036743 231.175797,130.662582 233.010483,131.293533 &#10;&#9;C235.403702,132.116577 238.640457,133.238510 240.481064,132.269440 &#10;&#9;C243.216827,130.829086 241.329895,128.724030 238.832489,127.339951 &#10;z"/>
  <path fill="#62C3E5" opacity="1.000000" stroke="none" d="&#10;M52.675339,91.280060 &#10;&#9;C47.883072,82.945389 43.227970,74.526001 38.178368,66.350273 &#10;&#9;C37.212784,64.786911 34.749321,63.421680 32.878471,63.281807 &#10;&#9;C27.432564,62.874653 21.933208,63.237995 16.463360,63.050217 &#10;&#9;C15.320955,63.011002 14.215217,61.903717 13.092582,61.288628 &#10;&#9;C14.270078,60.558197 15.424276,59.244976 16.629045,59.196815 &#10;&#9;C22.262285,58.971634 27.916584,59.250179 33.546959,58.991627 &#10;&#9;C35.066753,58.921833 37.190331,57.996696 37.911259,56.791119 &#10;&#9;C42.841824,48.545975 47.472450,40.121460 52.524246,31.541451 &#10;&#9;C53.959278,31.925343 55.069817,32.522552 56.091537,33.461105 &#10;&#9;C51.610977,41.436211 47.396164,49.180073 42.746056,56.653069 &#10;&#9;C40.699886,59.941383 40.700325,62.486053 42.721481,65.740547 &#10;&#9;C47.363556,73.215271 51.653191,80.908882 55.866219,88.693802 &#10;&#9;C54.656147,89.675987 53.665741,90.478020 52.675339,91.280060 &#10;z"/>
  <path fill="#0C0C0C" opacity="1.000000" stroke="none" d="&#10;M319.531433,170.705902 &#10;&#9;C321.336517,173.428131 322.990356,175.963181 326.527832,175.287354 &#10;&#9;C327.784149,175.047333 329.539673,174.055038 329.816803,173.058441 &#10;&#9;C330.063751,172.170258 328.849915,170.348312 327.811371,169.740845 &#10;&#9;C325.692047,168.501175 323.206329,167.909058 320.963562,166.854477 &#10;&#9;C317.398651,165.178177 314.850616,162.687943 315.666473,158.319580 &#10;&#9;C316.508789,153.809494 319.784790,152.192001 323.947144,151.858459 &#10;&#9;C331.115234,151.284042 334.912018,154.190125 335.718964,162.459885 &#10;&#9;C333.163269,160.961624 331.499298,159.841553 329.711334,158.978302 &#10;&#9;C327.895782,158.101715 326.001984,157.161926 324.053192,156.890427 &#10;&#9;C323.198120,156.771301 321.496460,158.120834 321.322174,159.024048 &#10;&#9;C321.149353,159.919769 322.166138,161.547577 323.096802,162.054489 &#10;&#9;C325.406464,163.312500 327.992798,164.050110 330.416168,165.114746 &#10;&#9;C333.855591,166.625763 336.419037,168.933548 335.854309,173.076233 &#10;&#9;C335.247711,177.525940 332.173187,179.521500 327.983704,180.077133 &#10;&#9;C320.547821,181.063309 316.583191,178.485641 315.085663,171.127838 &#10;&#9;C316.476349,170.962814 317.817169,170.803696 319.531433,170.705902 &#10;z"/>
  <path fill="#0D0D0D" opacity="1.000000" stroke="none" d="&#10;M247.102844,176.792786 &#10;&#9;C247.432816,177.962692 247.668076,178.739273 247.978394,179.763626 &#10;&#9;C245.110794,179.895737 242.363815,181.260727 241.014816,177.126083 &#10;&#9;C240.221283,174.693924 231.809250,175.046143 230.064163,177.001358 &#10;&#9;C228.645493,178.590866 226.621735,179.640305 224.866302,180.929245 &#10;&#9;C224.363983,180.468857 223.861649,180.008469 223.359329,179.548080 &#10;&#9;C226.165100,170.805466 228.855164,162.021408 231.948349,153.381699 &#10;&#9;C232.272247,152.477005 235.030502,151.955215 236.562469,152.125748 &#10;&#9;C237.795914,152.263046 239.530655,153.488007 239.929504,154.622009 &#10;&#9;C242.461349,161.820541 244.683716,169.127945 247.102844,176.792786 &#10;M237.745758,164.981339 &#10;&#9;C237.105072,163.120361 236.464371,161.259384 235.545074,158.589188 &#10;&#9;C234.204468,163.153992 233.106522,166.892487 231.941742,170.858612 &#10;&#9;C234.492050,170.858612 236.741211,170.858612 239.263535,170.858612 &#10;&#9;C238.771179,168.959137 238.357956,167.364960 237.745758,164.981339 &#10;z"/>
  <path fill="#0B0B0B" opacity="1.000000" stroke="none" d="&#10;M273.433533,114.915260 &#10;&#9;C269.694183,114.915970 266.397858,114.915970 262.882996,114.915970 &#10;&#9;C262.882996,117.060631 262.882996,118.820786 262.882996,121.107811 &#10;&#9;C265.547729,121.107811 268.277832,121.107811 271.448517,121.107811 &#10;&#9;C271.659698,122.907440 271.817322,124.250511 272.029755,126.060608 &#10;&#9;C268.875397,126.060608 266.119354,126.060608 263.007996,126.060608 &#10;&#9;C263.007996,128.509949 263.007996,130.551865 263.007996,133.000366 &#10;&#9;C267.247498,133.000366 271.504059,133.000366 276.035400,133.000366 &#10;&#9;C276.035400,134.806290 276.035400,136.213242 276.035400,137.823914 &#10;&#9;C269.775696,137.823914 263.685242,137.823914 257.269592,137.823914 &#10;&#9;C257.269592,128.718536 257.269592,119.661659 257.269592,110.290787 &#10;&#9;C263.422974,110.290787 269.633667,110.290787 277.577789,110.290787 &#10;&#9;C275.912659,112.370926 274.894592,113.642738 273.433533,114.915260 &#10;z"/>
  <path fill="#050505" opacity="1.000000" stroke="none" d="&#10;M313.811707,118.048737 &#10;&#9;C313.811707,115.249458 313.811707,112.939194 313.811707,110.245453 &#10;&#9;C315.611511,110.144722 317.167969,110.057610 319.311249,109.937653 &#10;&#9;C319.311249,115.841003 319.316040,121.435181 319.309418,127.029350 &#10;&#9;C319.305603,130.272873 319.854034,133.264313 323.924377,133.334381 &#10;&#9;C328.255859,133.408951 328.927094,130.389740 328.889984,126.874397 &#10;&#9;C328.832306,121.411713 328.874725,115.947968 328.874725,110.242867 &#10;&#9;C330.791046,110.242867 332.368805,110.242867 334.252563,110.242867 &#10;&#9;C334.252563,116.919426 334.546753,123.556831 334.160126,130.154327 &#10;&#9;C333.846893,135.499573 329.582428,138.399673 323.515472,138.199890 &#10;&#9;C317.878601,138.014282 314.209778,134.816238 313.900604,129.510330 &#10;&#9;C313.688080,125.863457 313.828857,122.196007 313.811707,118.048737 &#10;z"/>
  <path fill="#050505" opacity="1.000000" stroke="none" d="&#10;M198.000671,133.576294 &#10;&#9;C197.341476,125.645386 196.856049,118.088661 196.352112,110.243774 &#10;&#9;C198.749725,110.243774 200.326141,110.243774 202.311401,110.243774 &#10;&#9;C202.311401,115.948723 202.315109,121.586349 202.310013,127.223969 &#10;&#9;C202.307022,130.541275 203.081650,133.384201 207.128448,133.341553 &#10;&#9;C211.134735,133.299301 211.914490,130.511993 211.887070,127.157425 &#10;&#9;C211.841125,121.534927 211.874496,115.911774 211.874496,110.144936 &#10;&#9;C213.806854,110.144936 215.257538,110.144936 217.056671,110.144936 &#10;&#9;C217.056671,117.275146 217.581879,124.403587 216.765015,131.374756 &#10;&#9;C216.488022,133.738693 213.181931,136.729431 210.625137,137.628830 &#10;&#9;C206.075531,139.229279 201.357834,138.439926 198.000671,133.576294 &#10;z"/>
  <path fill="#101010" opacity="1.000000" stroke="none" d="&#10;M304.630432,166.676468 &#10;&#9;C300.591003,167.964447 296.839905,168.979172 292.367004,170.189148 &#10;&#9;C292.367004,172.612946 292.367004,176.006958 292.367004,179.762894 &#10;&#9;C290.308380,179.879410 288.740784,179.968124 286.790833,180.078491 &#10;&#9;C286.790833,170.726807 286.790833,161.670715 286.790833,152.059601 &#10;&#9;C291.193848,152.059601 295.660553,151.634552 300.013062,152.158295 &#10;&#9;C306.696716,152.962570 308.934021,159.894424 304.630432,166.676468 &#10;M294.572998,164.659378 &#10;&#9;C296.738495,163.872864 299.049316,163.321274 300.967163,162.134613 &#10;&#9;C301.446259,161.838181 301.014893,158.489426 300.392365,158.269562 &#10;&#9;C297.823517,157.362259 295.020233,157.118500 290.840851,156.368454 &#10;&#9;C292.162750,160.167908 292.940399,162.403107 294.572998,164.659378 &#10;z"/>
  <path fill="#0A0A0A" opacity="1.000000" stroke="none" d="&#10;M274.125031,153.589035 &#10;&#9;C277.625702,156.544189 278.418518,160.043060 276.967621,163.748001 &#10;&#9;C274.455719,170.162079 268.519226,168.977188 262.798950,169.141968 &#10;&#9;C262.798950,172.747375 262.798950,176.142715 262.798950,179.768616 &#10;&#9;C260.655701,179.768616 259.074036,179.768616 257.230743,179.768616 &#10;&#9;C257.230743,170.661301 257.230743,161.590775 257.230743,151.390900 &#10;&#9;C262.877594,152.050598 268.351349,152.690079 274.125031,153.589035 &#10;M271.786438,162.105988 &#10;&#9;C271.453705,156.830154 269.988922,156.069733 263.125732,157.433594 &#10;&#9;C263.125732,159.850998 263.125732,162.208694 263.125732,165.634537 &#10;&#9;C266.357178,164.527908 268.871094,163.667007 271.786438,162.105988 &#10;z"/>
  <path fill="#58BAD6" opacity="1.000000" stroke="none" d="&#10;M92.000542,113.001602 &#10;&#9;C93.011215,112.677048 94.021896,112.352486 95.353699,112.032784 &#10;&#9;C98.780357,117.311455 102.122581,122.467110 104.849876,127.929771 &#10;&#9;C105.688110,129.608719 105.533546,132.482559 104.648705,134.198120 &#10;&#9;C101.314636,140.662231 97.648750,146.974182 93.740471,153.109543 &#10;&#9;C92.789322,154.602692 90.498489,155.942886 88.723503,156.082764 &#10;&#9;C82.808723,156.548904 76.848427,156.437576 70.452530,156.154083 &#10;&#9;C70.032837,154.526138 70.066200,153.291656 70.559952,152.041962 &#10;&#9;C76.004707,152.022720 81.000443,151.815735 85.968971,152.094193 &#10;&#9;C88.751732,152.250137 90.114693,151.215363 91.361809,148.880981 &#10;&#9;C94.018707,143.907730 97.269142,139.236282 99.696159,134.163559 &#10;&#9;C100.581207,132.313690 100.515945,129.367340 99.671844,127.456909 &#10;&#9;C97.472946,122.480202 94.602882,117.800049 92.000542,113.001602 &#10;z"/>
  <path fill="#0D0D0D" opacity="1.000000" stroke="none" d="&#10;M286.411713,110.409805 &#10;&#9;C292.739777,110.074615 298.721100,110.074615 304.995972,110.074615 &#10;&#9;C304.995972,111.607048 304.995972,113.019913 304.995972,114.864159 &#10;&#9;C300.627899,114.864159 296.376587,114.864159 291.901855,114.864159 &#10;&#9;C291.901855,117.048355 291.901855,118.809807 291.901855,121.096718 &#10;&#9;C294.543427,121.096718 297.275604,121.096718 300.449493,121.096718 &#10;&#9;C300.663269,122.905342 300.822571,124.253136 301.036102,126.059799 &#10;&#9;C297.878143,126.059799 295.118896,126.059799 291.745392,126.059799 &#10;&#9;C291.745392,130.182816 291.745392,133.914536 291.745392,137.824402 &#10;&#9;C289.544952,137.824402 287.958710,137.824402 286.064972,137.824402 &#10;&#9;C286.064972,128.670792 286.064972,119.707893 286.411713,110.409805 &#10;z"/>
  <path fill="#030303" opacity="1.000000" stroke="none" d="&#10;M344.769775,133.899490 &#10;&#9;C344.769714,125.783409 344.769714,118.156296 344.769714,110.264908 &#10;&#9;C346.679260,110.264908 348.226257,110.264908 350.245789,110.264908 &#10;&#9;C350.245789,117.828369 350.245789,125.239944 350.245789,133.048126 &#10;&#9;C354.954102,133.048126 359.217163,133.048126 363.759064,133.048126 &#10;&#9;C363.759064,134.835510 363.759064,136.213013 363.759064,138.002213 &#10;&#9;C358.186493,138.002213 352.720703,137.883102 347.263519,138.048538 &#10;&#9;C344.170471,138.142303 344.849945,136.110764 344.769775,133.899490 &#10;z"/>
  <path fill="#76CAE8" opacity="1.000000" stroke="none" d="&#10;M63.892368,25.228897 &#10;&#9;C72.847458,25.208473 81.819588,25.512636 90.751122,25.043552 &#10;&#9;C95.949142,24.770552 99.314880,26.227430 101.106369,31.166140 &#10;&#9;C101.606834,32.545784 102.479980,33.790241 102.892303,35.516106 &#10;&#9;C101.707634,36.295689 100.812805,36.655880 99.632431,36.829651 &#10;&#9;C97.255287,30.382734 92.694008,29.309425 86.642509,29.704775 &#10;&#9;C78.764343,30.219463 70.825638,29.807318 63.058105,29.480377 &#10;&#9;C63.432945,27.854113 63.662655,26.541504 63.892368,25.228897 &#10;z"/>
  <path fill="#EE8967" opacity="1.000000" stroke="none" d="&#10;M52.510506,91.666016 &#10;&#9;C53.665741,90.478020 54.656147,89.675987 56.248749,88.627884 &#10;&#9;C60.948433,87.543190 63.163033,90.016464 65.028564,93.475418 &#10;&#9;C64.988380,95.050865 64.979446,96.199654 64.970512,97.348450 &#10;&#9;C62.647671,100.506111 59.942005,102.853462 55.731209,100.908867 &#10;&#9;C51.815582,99.100571 51.457836,95.776993 52.510506,91.666016 &#10;z"/>
  <path fill="#2875DA" opacity="1.000000" stroke="none" d="&#10;M142.124863,77.734039 &#10;&#9;C142.126328,76.569611 142.127792,75.405190 142.171906,73.896194 &#10;&#9;C144.563126,70.521561 147.233780,67.875656 151.400635,69.898460 &#10;&#9;C155.537872,71.906883 156.493896,75.248146 153.867981,79.490616 &#10;&#9;C152.937012,79.614128 152.201492,79.426247 152.008545,79.669235 &#10;&#9;C151.234360,80.644188 150.628296,81.752640 149.609741,82.765213 &#10;&#9;C146.881226,81.057137 144.503036,79.395584 142.124863,77.734039 &#10;z"/>
  <path fill="#EABE5A" opacity="1.000000" stroke="none" d="&#10;M70.099564,152.057175 &#10;&#9;C70.066200,153.291656 70.032837,154.526138 70.012238,156.120605 &#10;&#9;C67.407967,159.523392 64.571175,162.250290 60.280647,159.555878 &#10;&#9;C56.551144,157.213806 56.119068,153.833160 58.194378,149.681519 &#10;&#9;C59.426895,148.773560 60.522293,148.215210 62.217701,147.431122 &#10;&#9;C65.245003,148.822647 67.672279,150.439911 70.099564,152.057175 &#10;z"/>
  <path fill="#EE8967" opacity="1.000000" stroke="none" d="&#10;M199.759964,99.065422 &#10;&#9;C202.584732,93.720329 207.278885,92.285530 210.840256,95.678642 &#10;&#9;C213.527878,98.239288 213.615540,102.519714 211.033432,105.110718 &#10;&#9;C208.029068,108.125420 203.948334,107.512474 200.176971,102.829987 &#10;&#9;C199.908875,101.122398 199.834412,100.093910 199.759964,99.065422 &#10;z"/>
  <path fill="#EABE5A" opacity="1.000000" stroke="none" d="&#10;M100.743652,92.106476 &#10;&#9;C101.337364,95.704857 100.673714,98.862480 97.054359,100.483871 &#10;&#9;C93.494293,102.078697 90.606125,100.809891 88.183182,97.077988 &#10;&#9;C87.908150,95.306595 87.837387,94.219894 87.903168,92.785156 &#10;&#9;C90.030746,87.940323 93.529587,87.278419 97.943436,88.850357 &#10;&#9;C98.967773,90.104774 99.855713,91.105621 100.743652,92.106476 &#10;z"/>
  <path fill="#E8BD59" opacity="1.000000" stroke="none" d="&#10;M142.045242,125.162537 &#10;&#9;C141.561569,123.525986 141.320663,122.182327 141.295746,120.247871 &#10;&#9;C143.193359,116.144478 145.955261,114.618866 150.033844,115.363312 &#10;&#9;C151.247162,116.187012 152.254303,116.783310 153.261459,117.379608 &#10;&#9;C154.538437,120.967430 155.146027,124.615433 151.441208,127.056030 &#10;&#9;C148.128464,129.238342 144.914536,128.432480 142.045242,125.162537 &#10;z"/>
  <path fill="#EE8967" opacity="1.000000" stroke="none" d="&#10;M114.195023,54.084980 &#10;&#9;C118.216782,54.356995 121.478317,55.961182 121.835747,60.302036 &#10;&#9;C122.165512,64.306885 119.906967,66.788147 115.015823,67.188385 &#10;&#9;C113.177719,66.783600 112.061417,66.396599 110.773361,65.684448 &#10;&#9;C108.077461,62.333004 108.577393,59.245960 110.707809,56.027798 &#10;&#9;C112.064552,55.310703 113.129791,54.697842 114.195023,54.084980 &#10;z"/>
  <path fill="#5ABCD9" opacity="1.000000" stroke="none" d="&#10;M153.527130,117.065720 &#10;&#9;C152.254303,116.783310 151.247162,116.187012 150.198593,115.037155 &#10;&#9;C151.637924,111.887955 153.038971,109.242683 154.617126,106.707664 &#10;&#9;C157.338287,102.336639 160.143066,98.031593 156.216187,92.832146 &#10;&#9;C157.045013,91.666779 157.595917,90.685547 158.146835,89.704323 &#10;&#9;C159.957413,92.638466 161.767990,95.572617 163.755280,99.113701 &#10;&#9;C163.626740,100.761009 163.321472,101.801384 163.016205,102.841751 &#10;&#9;C159.941742,107.478439 156.867279,112.115143 153.527130,117.065720 &#10;z"/>
  <path fill="#5EBDDA" opacity="1.000000" stroke="none" d="&#10;M110.945114,66.009590 &#10;&#9;C112.061417,66.396599 113.177719,66.783600 114.636658,67.279472 &#10;&#9;C110.338181,75.405556 105.697060,83.422760 100.899796,91.773224 &#10;&#9;C99.855713,91.105621 98.967773,90.104774 98.136520,88.509293 &#10;&#9;C102.443848,80.612968 106.694481,73.311279 110.945114,66.009590 &#10;z"/>
  <path fill="#4FB5D1" opacity="1.000000" stroke="none" d="&#10;M163.480316,102.901825 &#10;&#9;C163.321472,101.801384 163.626740,100.761009 163.958160,99.393120 &#10;&#9;C173.342941,99.054939 182.701569,99.044289 192.529022,99.459831 &#10;&#9;C192.994095,100.866226 192.990341,101.846428 192.986588,102.826630 &#10;&#9;C183.305862,102.871719 173.625153,102.916809 163.480316,102.901825 &#10;z"/>
  <path fill="#58BAD6" opacity="1.000000" stroke="none" d="&#10;M114.074028,53.741760 &#10;&#9;C113.129791,54.697842 112.064552,55.310703 110.524658,55.700005 &#10;&#9;C106.672653,49.322987 103.295319,43.169529 99.917984,37.016075 &#10;&#9;C100.812805,36.655880 101.707634,36.295689 102.964996,35.869347 &#10;&#9;C106.869370,41.668312 110.411201,47.533428 114.074028,53.741760 &#10;z"/>
  <path fill="#58BAD6" opacity="1.000000" stroke="none" d="&#10;M87.766617,93.133194 &#10;&#9;C87.837387,94.219894 87.908150,95.306595 87.973267,96.805397 &#10;&#9;C80.616753,97.234100 73.265900,97.250710 65.442780,97.307877 &#10;&#9;C64.979446,96.199654 64.988380,95.050865 65.492020,93.460220 &#10;&#9;C73.246696,93.056641 80.506660,93.094917 87.766617,93.133194 &#10;z"/>
  <path fill="#1B66D7" opacity="1.000000" stroke="none" d="&#10;M122.700134,165.201736 &#10;&#9;C124.282372,166.899536 125.864616,168.597336 127.189774,170.577240 &#10;&#9;C125.992744,170.416565 125.052803,169.973785 124.173714,169.559662 &#10;&#9;C124.173714,170.974640 124.173714,172.065948 124.173714,173.157257 &#10;&#9;C123.157654,172.793854 122.141594,172.430450 121.125534,172.067047 &#10;&#9;C121.661346,172.577591 122.197151,173.088135 122.732964,173.598679 &#10;&#9;C120.817116,174.736374 118.901260,175.874084 116.985397,177.011749 &#10;&#9;C113.620903,172.448959 113.882431,170.209122 118.883797,165.989044 &#10;&#9;C120.581383,165.573410 121.640755,165.387573 122.700134,165.201736 &#10;z"/>
  <path fill="#1B66D7" opacity="1.000000" stroke="none" d="&#10;M51.909035,30.064739 &#10;&#9;C49.839764,25.332550 50.506870,22.033968 54.230099,20.526567 &#10;&#9;C58.185139,18.925318 61.270969,20.142614 62.741268,24.607422 &#10;&#9;C61.758289,25.715990 60.993835,26.465441 59.642784,27.789974 &#10;&#9;C59.343197,27.659344 58.077393,27.107410 57.427582,26.824070 &#10;&#9;C55.353336,28.042133 53.631187,29.053436 51.909035,30.064739 &#10;z"/>
  <path fill="#4FB5D1" opacity="1.000000" stroke="none" d="&#10;M119.048920,135.467026 &#10;&#9;C120.111404,134.675919 121.124786,134.350281 122.463409,134.035797 &#10;&#9;C122.844398,139.718811 122.900139,145.390686 122.512527,151.527802 &#10;&#9;C121.088333,151.992508 120.107475,151.991928 119.126625,151.991364 &#10;&#9;C119.084358,146.638412 119.042091,141.285446 119.048920,135.467026 &#10;z"/>
  <path fill="#3991DD" opacity="1.000000" stroke="none" d="&#10;M51.946175,30.327547 &#10;&#9;C53.631187,29.053436 55.353336,28.042133 57.427582,26.824070 &#10;&#9;C58.077393,27.107410 59.343197,27.659344 59.642784,27.789974 &#10;&#9;C60.993835,26.465441 61.758289,25.715990 62.871422,24.947966 &#10;&#9;C63.220097,24.929390 63.604515,24.970394 63.748444,25.099646 &#10;&#9;C63.662655,26.541504 63.432945,27.854113 62.797626,29.711731 &#10;&#9;C60.321465,31.211081 58.250912,32.165421 56.180355,33.119759 &#10;&#9;C55.069817,32.522552 53.959278,31.925343 52.571213,31.174570 &#10;&#9;C52.190235,30.877455 52.086777,30.733904 51.946175,30.327547 &#10;z"/>
  <path fill="#3F92DE" opacity="1.000000" stroke="none" d="&#10;M117.210556,177.281616 &#10;&#9;C118.901260,175.874084 120.817116,174.736374 122.732964,173.598679 &#10;&#9;C122.197151,173.088135 121.661346,172.577591 121.125534,172.067047 &#10;&#9;C122.141594,172.430450 123.157654,172.793854 124.173714,173.157257 &#10;&#9;C124.173714,172.065948 124.173714,170.974640 124.173714,169.559662 &#10;&#9;C125.052803,169.973785 125.992744,170.416565 127.251068,170.942154 &#10;&#9;C127.783600,177.297440 123.741646,179.900589 117.210556,177.281616 &#10;z"/>
  <path fill="#56BADC" opacity="1.000000" stroke="none" d="&#10;M119.059357,152.451965 &#10;&#9;C120.107475,151.991928 121.088333,151.992508 122.436707,151.989136 &#10;&#9;C122.831154,156.075638 122.858086,160.166046 122.792572,164.729095 &#10;&#9;C121.640755,165.387573 120.581383,165.573410 119.201073,165.823685 &#10;&#9;C118.917458,161.562943 118.954773,157.237762 119.059357,152.451965 &#10;z"/>
  <path fill="#60BFE4" opacity="1.000000" stroke="none" d="&#10;M158.058594,89.376068 &#10;&#9;C157.595917,90.685547 157.045013,91.666779 155.949310,92.630493 &#10;&#9;C153.589706,89.345901 151.774887,86.078819 149.960068,82.811737 &#10;&#9;C150.628296,81.752640 151.234360,80.644188 152.008545,79.669235 &#10;&#9;C152.201492,79.426247 152.937012,79.614128 153.653992,79.754745 &#10;&#9;C155.246658,82.952957 156.608505,86.000381 158.058594,89.376068 &#10;z"/>
  <path fill="#58BAD6" opacity="1.000000" stroke="none" d="&#10;M193.419022,102.896057 &#10;&#9;C192.990341,101.846428 192.994095,100.866226 192.993637,99.518570 &#10;&#9;C194.967606,99.113251 196.945801,99.075378 199.341980,99.051468 &#10;&#9;C199.834412,100.093910 199.908875,101.122398 199.971954,102.537758 &#10;&#9;C197.924194,102.938248 195.887833,102.951866 193.419022,102.896057 &#10;z"/>
  <path opacity="1.000000" stroke="none" d="&#10;M186.349731,69.791252 &#10;&#9;C186.349747,61.848663 186.349747,54.384281 186.349747,46.497898 &#10;&#9;C192.654114,46.220436 198.893372,44.976864 202.927734,50.922543 &#10;&#9;C206.898560,56.774536 206.888489,63.280743 203.605789,69.405426 &#10;&#9;C199.865753,76.383408 193.120575,75.073647 186.559601,74.820023 &#10;&#9;C186.484451,73.190613 186.417084,71.730034 186.349731,69.791252 &#10;z" style="fill: rgba(255, 255, 255, 0);"/>
  <path opacity="1.000000" stroke="none" d="&#10;M252.601089,66.268608 &#10;&#9;C249.011765,66.288574 245.877945,66.288574 242.076462,66.288574 &#10;&#9;C244.129959,60.258541 246.010544,54.736290 248.244308,48.176922 &#10;&#9;C250.257706,54.042679 251.918732,58.686268 253.402161,63.385921 &#10;&#9;C253.665619,64.220642 253.190582,65.288467 252.601089,66.268608 &#10;z" style="fill: rgba(255, 255, 255, 0);"/>
  <path opacity="1.000000" stroke="none" d="&#10;M149.609741,82.765213 &#10;&#9;C151.774887,86.078819 153.589706,89.345901 155.671417,92.814636 &#10;&#9;C160.143066,98.031593 157.338287,102.336639 154.617126,106.707664 &#10;&#9;C153.038971,109.242683 151.637924,111.887955 149.992432,114.809761 &#10;&#9;C145.955261,114.618866 143.193359,116.144478 141.261993,119.901108 &#10;&#9;C136.202362,120.158012 131.371490,119.900925 126.589485,120.272552 &#10;&#9;C123.017830,120.550117 121.130203,119.107353 119.573082,116.143311 &#10;&#9;C116.572159,110.430954 110.791214,104.826195 110.854721,99.230057 &#10;&#9;C110.920753,93.411896 116.675934,87.729927 119.658501,81.844086 &#10;&#9;C121.232475,78.737961 123.328857,77.659447 126.747818,77.849396 &#10;&#9;C131.543198,78.115791 136.366196,77.885025 141.651123,77.800476 &#10;&#9;C144.503036,79.395584 146.881226,81.057137 149.609741,82.765213 &#10;z" style="fill: rgba(254, 254, 254, 0);"/>
  <path opacity="1.000000" stroke="none" d="&#10;M70.559952,152.041962 &#10;&#9;C67.672279,150.439911 65.245003,148.822647 62.447906,147.223328 &#10;&#9;C60.440273,144.343109 59.174149,141.138062 57.087311,138.610641 &#10;&#9;C52.732590,133.336487 54.035267,129.018799 56.626564,123.027893 &#10;&#9;C61.693275,111.313965 69.394104,106.803520 81.647789,109.109886 &#10;&#9;C85.110939,109.761719 89.562569,107.410294 91.720001,112.771912 &#10;&#9;C94.602882,117.800049 97.472946,122.480202 99.671844,127.456909 &#10;&#9;C100.515945,129.367340 100.581207,132.313690 99.696159,134.163559 &#10;&#9;C97.269142,139.236282 94.018707,143.907730 91.361809,148.880981 &#10;&#9;C90.114693,151.215363 88.751732,152.250137 85.968971,152.094193 &#10;&#9;C81.000443,151.815735 76.004707,152.022720 70.559952,152.041962 &#10;z" style="fill: rgba(255, 255, 255, 0);"/>
  <path opacity="1.000000" stroke="none" d="&#10;M56.091537,33.461105 &#10;&#9;C58.250912,32.165421 60.321465,31.211081 62.652504,30.025389 &#10;&#9;C70.825638,29.807318 78.764343,30.219463 86.642509,29.704775 &#10;&#9;C92.694008,29.309425 97.255287,30.382734 99.632431,36.829651 &#10;&#9;C103.295319,43.169529 106.672653,49.322987 110.233147,55.804237 &#10;&#9;C108.577393,59.245960 108.077461,62.333004 110.773361,65.684448 &#10;&#9;C106.694481,73.311279 102.443848,80.612968 98.000122,88.255722 &#10;&#9;C93.529587,87.278419 90.030746,87.940323 87.903168,92.785156 &#10;&#9;C80.506660,93.094917 73.246696,93.056641 65.523277,93.033562 &#10;&#9;C63.163033,90.016464 60.948433,87.543190 56.468410,88.447723 &#10;&#9;C51.653191,80.908882 47.363556,73.215271 42.721481,65.740547 &#10;&#9;C40.700325,62.486053 40.699886,59.941383 42.746056,56.653069 &#10;&#9;C47.396164,49.180073 51.610977,41.436211 56.091537,33.461105 &#10;z" style="fill: rgba(255, 255, 255, 0);"/>
  <path fill="#F0F0F0" opacity="1.000000" stroke="none" d="&#10;M237.845245,165.376068 &#10;&#9;C238.357956,167.364960 238.771179,168.959137 239.263535,170.858612 &#10;&#9;C236.741211,170.858612 234.492050,170.858612 231.941742,170.858612 &#10;&#9;C233.106522,166.892487 234.204468,163.153992 235.545074,158.589188 &#10;&#9;C236.464371,161.259384 237.105072,163.120361 237.845245,165.376068 &#10;z"/>
  <path opacity="1.000000" stroke="none" d="&#10;M294.145508,164.648834 &#10;&#9;C292.940399,162.403107 292.162750,160.167908 290.840851,156.368454 &#10;&#9;C295.020233,157.118500 297.823517,157.362259 300.392365,158.269562 &#10;&#9;C301.014893,158.489426 301.446259,161.838181 300.967163,162.134613 &#10;&#9;C299.049316,163.321274 296.738495,163.872864 294.145508,164.648834 &#10;z" style="fill: rgba(240, 240, 240, 0);"/>
  <path opacity="1.000000" stroke="none" d="&#10;M271.585693,162.456055 &#10;&#9;C268.871094,163.667007 266.357178,164.527908 263.125732,165.634537 &#10;&#9;C263.125732,162.208694 263.125732,159.850998 263.125732,157.433594 &#10;&#9;C269.988922,156.069733 271.453705,156.830154 271.585693,162.456055 &#10;z" style="fill: rgba(240, 240, 240, 0);"/>
</svg>